<svg width="30" height="29" viewBox="0 0 30 29" fill="none" xmlns="http://www.w3.org/2000/svg">
<path d="M27.662 25.1925C26.7566 24.3853 25.9638 23.46 25.3052 22.4413C24.5862 21.0353 24.1552 19.4998 24.0376 17.9249V13.2864C24.0338 12.723 23.9835 12.1608 23.8874 11.6056C23.1483 11.4579 22.438 11.1916 21.7841 10.8169C22.0333 11.6196 22.16 12.4553 22.1597 13.2958V17.9343C22.2747 19.8554 22.8032 21.7291 23.709 23.4273C24.3572 24.4545 25.1264 25.4002 26 26.2442H1.95305C2.82668 25.4002 3.59587 24.4545 4.24414 23.4273C5.14988 21.7291 5.67835 19.8554 5.79344 17.9343V13.2864C5.78849 12.1997 5.99795 11.1227 6.40981 10.1171C6.82168 9.1115 7.42786 8.197 8.19364 7.42598C8.95943 6.65496 9.86978 6.04256 10.8726 5.62386C11.8754 5.20516 12.9509 4.98837 14.0376 4.98591C15.628 4.98719 17.1827 5.45751 18.5071 6.33803C18.3611 5.80187 18.2791 5.25029 18.2629 4.69483V4.10328C17.2825 3.62099 16.2293 3.30374 15.1456 3.16431V1.98121C15.1456 1.64876 15.0135 1.32992 14.7784 1.09484C14.5433 0.859759 14.2245 0.727692 13.892 0.727692C13.5596 0.727692 13.2407 0.859759 13.0057 1.09484C12.7706 1.32992 12.6385 1.64876 12.6385 1.98121V3.21126C10.212 3.55357 7.99116 4.7622 6.38613 6.61402C4.7811 8.46585 3.90022 10.8358 3.90611 13.2864V17.9249C3.78851 19.4998 3.35754 21.0353 2.6385 22.4413C1.99144 23.4576 1.21145 24.3829 0.319249 25.1925C0.219091 25.2805 0.138818 25.3888 0.0837724 25.5102C0.0287263 25.6317 0.000168823 25.7634 0 25.8967V27.1737C0 27.4228 0.0989267 27.6616 0.275017 27.8377C0.451108 28.0138 0.689939 28.1127 0.938969 28.1127H27.0423C27.2913 28.1127 27.5302 28.0138 27.7062 27.8377C27.8823 27.6616 27.9813 27.4228 27.9813 27.1737V25.8967C27.9811 25.7634 27.9525 25.6317 27.8975 25.5102C27.8424 25.3888 27.7622 25.2805 27.662 25.1925V25.1925Z" fill="black"/>
<path d="M25.3052 9.38969C27.898 9.38969 30 7.28773 30 4.69484C30 2.10195 27.898 0 25.3052 0C22.7123 0 20.6103 2.10195 20.6103 4.69484C20.6103 7.28773 22.7123 9.38969 25.3052 9.38969Z" fill="black"/>
</svg>
