<svg width="25" height="25" viewBox="0 0 25 25" fill="none" xmlns="http://www.w3.org/2000/svg">
<path d="M11.7325 0.263367C11.9519 0.0926742 12.222 0 12.5 0C12.778 0 13.0481 0.0926742 13.2675 0.263367L23.5525 8.26337C24.0036 8.61424 24.3684 9.06355 24.6193 9.57699C24.8702 10.0904 25.0004 10.6544 25 11.2259V22.5009C25 23.1639 24.7366 23.7998 24.2678 24.2686C23.7989 24.7375 23.163 25.0009 22.5 25.0009H17.5C16.837 25.0009 16.2011 24.7375 15.7322 24.2686C15.2634 23.7998 15 23.1639 15 22.5009V15.0009H10V22.5009C10 23.1639 9.73661 23.7998 9.26777 24.2686C8.79893 24.7375 8.16304 25.0009 7.5 25.0009H2.5C1.83696 25.0009 1.20107 24.7375 0.732233 24.2686C0.263392 23.7998 0 23.1639 0 22.5009V11.2259C0 10.0659 0.535 8.97587 1.45 8.26337L11.7325 0.263367ZM12.5 2.83337L2.9825 10.2359C2.83182 10.3531 2.70998 10.5033 2.62634 10.6749C2.54271 10.8465 2.49949 11.035 2.5 11.2259V22.5009H7.5V15.0009C7.5 14.3378 7.76339 13.7019 8.23223 13.2331C8.70108 12.7643 9.33696 12.5009 10 12.5009H15C15.663 12.5009 16.2989 12.7643 16.7678 13.2331C17.2366 13.7019 17.5 14.3378 17.5 15.0009V22.5009H22.5V11.2259C22.5005 11.035 22.4573 10.8465 22.3737 10.6749C22.29 10.5033 22.1682 10.3531 22.0175 10.2359L12.5 2.83587V2.83337Z" fill="#FDFDFD"/>
</svg>
