<svg width="25" height="25" viewBox="0 0 25 25" fill="none" xmlns="http://www.w3.org/2000/svg">
<path fill-rule="evenodd" clip-rule="evenodd" d="M8.6207 11.3389V14.7407H11.9936L10.3459 11.3389H8.6207ZM5.17242 11.3389V14.7407H2.26779C1.01532 14.7407 0 15.756 0 17.0085C0 18.2609 1.01532 19.2763 2.26779 19.2763H5.17242V24.9458H8.6207V19.2763H14.1904L16.9626 25L17.2413 24.7665V24.9458H20.6895V19.2763H22.7322C23.9847 19.2763 25 18.2609 25 17.0085C25 15.756 23.9847 14.7407 22.7322 14.7407H20.6895V11.3389H22.7322C23.9847 11.3389 25 10.3236 25 9.07115C25 7.81868 23.9847 6.80336 22.7322 6.80336H20.6895V6.20353e-05H17.2413V6.80336H12.2377L8.94255 0L8.6207 0.269693V6.20353e-05H5.17242V6.80336H2.26779C1.01532 6.80336 0 7.81868 0 9.07115C0 10.3236 1.01532 11.3389 2.26779 11.3389H5.17242ZM14.4345 11.3389L16.0821 14.7407H17.2413V11.3389H14.4345Z" fill="#4C046D"/>
</svg>
