<svg width="19" height="30" viewBox="0 0 19 30" fill="none" xmlns="http://www.w3.org/2000/svg">
<path d="M9.2 0.759999C11.84 0.759999 13.9733 1.50667 15.6 3C17.2267 4.49333 18.04 6.49333 18.04 9C18.04 11.8 17.1733 13.88 15.44 15.24C13.7067 16.5733 11.36 17.24 8.4 17.24L8.28 21.04H5.12L4.96 14.72H6.12C8.76 14.72 10.8267 14.32 12.32 13.52C13.8133 12.72 14.56 11.2133 14.56 9C14.56 7.4 14.08 6.13333 13.12 5.2C12.16 4.26666 10.8667 3.8 9.24 3.8C7.58667 3.8 6.28 4.25333 5.32 5.16C4.38667 6.04 3.92 7.25333 3.92 8.8H0.48C0.48 7.2 0.84 5.8 1.56 4.6C2.28 3.37333 3.29333 2.42667 4.6 1.76C5.93333 1.09333 7.46667 0.759999 9.2 0.759999ZM6.68 29.24C5.98667 29.24 5.4 29 4.92 28.52C4.44 28.04 4.2 27.4533 4.2 26.76C4.2 26.0667 4.44 25.48 4.92 25C5.4 24.52 5.98667 24.28 6.68 24.28C7.34667 24.28 7.90667 24.52 8.36 25C8.84 25.48 9.08 26.0667 9.08 26.76C9.08 27.4533 8.84 28.04 8.36 28.52C7.90667 29 7.34667 29.24 6.68 29.24Z" fill="#4C046D"/>
</svg>
