<svg width="10" height="10" viewBox="0 0 10 10" fill="none" xmlns="http://www.w3.org/2000/svg">
<path fill-rule="evenodd" clip-rule="evenodd" d="M3.44831 4.53558V5.89627H4.79744L4.13839 4.53558H3.44831ZM2.069 4.53558V5.89627H0.907116C0.40613 5.89627 0 6.3024 0 6.80339C0 7.30437 0.406129 7.7105 0.907116 7.7105H2.069V9.97831H3.44831V7.7105H5.67616L6.78507 10L6.8965 9.90662V9.97831H8.27582V7.7105H9.09288C9.59387 7.7105 10 7.30437 10 6.80339C10 6.3024 9.59387 5.89627 9.09288 5.89627H8.27582V4.53558H9.09288C9.59387 4.53558 10 4.12945 10 3.62846C10 3.12747 9.59387 2.72134 9.09288 2.72134H8.27582V2.48601e-05H6.8965V2.72134H4.89511L3.57704 0L3.44831 0.107865V2.48601e-05H2.069V2.72134H0.907116C0.40613 2.72134 0 3.12747 0 3.62846C0 4.12945 0.406129 4.53558 0.907116 4.53558H2.069ZM5.77383 4.53558L6.43287 5.89627H6.8965V4.53558H5.77383Z" fill="#FD0000"/>
</svg>
