<svg width="130" height="130" viewBox="0 0 130 130" fill="none" xmlns="http://www.w3.org/2000/svg">
<path d="M65 65C79.9577 65 92.0833 52.8744 92.0833 37.9167C92.0833 22.9589 79.9577 10.8333 65 10.8333C50.0423 10.8333 37.9167 22.9589 37.9167 37.9167C37.9167 52.8744 50.0423 65 65 65Z" stroke="#6A6262" stroke-width="2"/>
<path d="M92.0836 75.8333H93.9903C97.9503 75.8344 101.774 77.2815 104.742 79.9028C107.71 82.524 109.619 86.1389 110.11 90.0683L112.228 106.99C112.419 108.514 112.283 110.062 111.829 111.53C111.376 112.998 110.616 114.352 109.599 115.504C108.582 116.655 107.332 117.578 105.932 118.209C104.531 118.841 103.012 119.167 101.476 119.167H28.5244C26.9882 119.167 25.4694 118.841 24.0689 118.209C22.6685 117.578 21.4183 116.655 20.4015 115.504C19.3846 114.352 18.6243 112.998 18.171 111.53C17.7178 110.062 17.5818 108.514 17.7723 106.99L19.8848 90.0683C20.3761 86.137 22.2867 82.5206 25.2573 79.8992C28.2279 77.2777 32.0538 75.8318 36.0157 75.8333H37.9169" stroke="#6A6262" stroke-width="2" stroke-linecap="round" stroke-linejoin="round"/>
</svg>
