<svg width="38" height="38" viewBox="0 0 38 38" fill="none" xmlns="http://www.w3.org/2000/svg">
<path fill-rule="evenodd" clip-rule="evenodd" d="M20.4561 2.0351C20.4561 1.01773 19.6314 0.192993 18.614 0.192993C17.5967 0.192993 16.7719 1.01773 16.7719 2.0351V13.7719C16.7719 15.4288 15.4288 16.7719 13.7719 16.7719H2.03518C1.01781 16.7719 0.193069 17.5967 0.193069 18.614C0.193069 19.6314 1.01781 20.4562 2.03518 20.4562H13.7719C15.4288 20.4562 16.7719 21.7993 16.7719 23.4562V35.193C16.7719 36.2104 17.5967 37.0351 18.614 37.0351C19.6314 37.0351 20.4561 36.2104 20.4561 35.193V23.4562C20.4561 21.7993 21.7993 20.4562 23.4561 20.4562H35.1931C36.2104 20.4562 37.0352 19.6314 37.0352 18.614C37.0352 17.5967 36.2104 16.7719 35.1931 16.7719H23.4561C21.7993 16.7719 20.4561 15.4288 20.4561 13.7719V2.0351Z" fill="#FBFBFB" fill-opacity="0.7"/>
</svg>
